<?xml version="1.0" encoding="UTF-8" standalone="no"?>
<!-- Created with Inkscape (http://www.inkscape.org/) -->

<svg
   xmlns:dc="http://purl.org/dc/elements/1.1/"
   xmlns:cc="http://creativecommons.org/ns#"
   xmlns:rdf="http://www.w3.org/1999/02/22-rdf-syntax-ns#"
   xmlns:svg="http://www.w3.org/2000/svg"
   xmlns="http://www.w3.org/2000/svg"
   xmlns:sodipodi="http://sodipodi.sourceforge.net/DTD/sodipodi-0.dtd"
   xmlns:inkscape="http://www.inkscape.org/namespaces/inkscape"
   id="svg3023"
   version="1.1"
   inkscape:version="0.48.1 r9760"
   width="239.20732"
   height="239.20732"
   xml:space="preserve"
   sodipodi:docname="logo frimgle f..svg"><metadata
     id="metadata3029"><rdf:RDF><cc:Work
         rdf:about=""><dc:format>image/svg+xml</dc:format><dc:type
           rdf:resource="http://purl.org/dc/dcmitype/StillImage" /><dc:title></dc:title></cc:Work></rdf:RDF></metadata><defs
     id="defs3027"><clipPath
       clipPathUnits="userSpaceOnUse"
       id="clipPath3039"><path
         d="m 0,0 1696,0 0,481 L 0,481 0,0 z"
         id="path3041"
         inkscape:connector-curvature="0" /></clipPath><clipPath
       clipPathUnits="userSpaceOnUse"
       id="clipPath3049"><path
         d="M 0,481 1696,481 1696,0 0,0 0,481 z"
         id="path3051"
         inkscape:connector-curvature="0" /></clipPath><clipPath
       clipPathUnits="userSpaceOnUse"
       id="clipPath3055"><path
         d="m 0,0 1696,0 0,481 L 0,481 0,0 z"
         id="path3057"
         inkscape:connector-curvature="0" /></clipPath></defs><sodipodi:namedview
     pagecolor="#ffffff"
     bordercolor="#666666"
     borderopacity="1"
     objecttolerance="10"
     gridtolerance="10"
     guidetolerance="10"
     inkscape:pageopacity="0"
     inkscape:pageshadow="2"
     inkscape:window-width="1776"
     inkscape:window-height="1139"
     id="namedview3025"
     showgrid="false"
     fit-margin-top="0"
     fit-margin-left="0"
     fit-margin-right="0"
     fit-margin-bottom="0"
     inkscape:zoom="0.78996716"
     inkscape:cx="1035.9297"
     inkscape:cy="259.40076"
     inkscape:window-x="2305"
     inkscape:window-y="148"
     inkscape:window-maximized="0"
     inkscape:current-layer="g3031" /><g
     id="g3031"
     inkscape:groupmode="layer"
     inkscape:label="logo frimgle f."
     transform="matrix(1.25,0,0,-1.25,-46.685443,280.43156)"><g
       id="g3033" /><g
       id="g3035"><g
         id="g3037"
         clip-path="url(#clipPath3039)"><path
           d="m 824,0 872,0 0,481 -872,0 0,-481 z"
           style="fill:#040606;fill-opacity:1;fill-rule:nonzero;stroke:none"
           id="path3043"
           inkscape:connector-curvature="0" /></g></g><path
       inkscape:connector-curvature="0"
       id="path3145"
       style="fill:#ffffff;fill-opacity:1;fill-rule:nonzero;stroke:none"
       d="m 1020.736,414.4463 -2.822,0 c -1.396,0.418 -3.574,0.957 -6.535,1.621 -2.965,0.661 -5.77,0.993 -8.419,0.993 -7.3897,0 -12.4267,-1.359 -15.1107,-4.078 -2.683,-2.719 -4.025,-7.808 -4.025,-15.267 l 0,-0.941 29.0697,0 0,-25.516 -27.8157,0 0,-91.917 -36.6,0 0,91.917 -14.639,0 0,25.516 14.639,0 0,3.241 c 0,14.361 3.766,25.131 11.294,32.312 7.529,7.18 18.927,10.771 34.194,10.771 5.297,0 10.2487,-0.193 14.8497,-0.575 4.601,-0.384 8.574,-0.889 11.92,-1.516 l 0,-26.561 z" /><path
       inkscape:connector-curvature="0"
       id="path3147"
       style="fill:#ffffff;fill-opacity:1;fill-rule:nonzero;stroke:none"
       d="m 1098.209,362.1606 -3.033,0 c -1.395,0.487 -3.416,0.853 -6.065,1.098 -2.65,0.244 -5.578,0.366 -8.784,0.366 -3.835,0 -7.86,-0.558 -12.077,-1.673 -4.219,-1.116 -8.314,-2.441 -12.287,-3.974 l 0,-78.637 -36.6,0 0,117.433 36.6,0 0,-16.836 c 1.673,1.533 3.99,3.467 6.953,5.804 2.963,2.335 5.664,4.199 8.105,5.594 2.648,1.603 5.733,2.981 9.254,4.131 3.52,1.15 6.85,1.725 9.987,1.725 1.184,0 2.509,-0.036 3.973,-0.104 1.464,-0.071 2.787,-0.175 3.974,-0.314 l 0,-34.613 z" /><path
       inkscape:connector-curvature="0"
       id="path3149"
       style="fill:#ffffff;fill-opacity:1;fill-rule:nonzero;stroke:none"
       d="m 1140.649,279.341 -36.6,0 0,117.433 36.6,0 0,-117.433 z" /><path
       inkscape:connector-curvature="0"
       id="path3151"
       style="fill:#ffffff;fill-opacity:1;fill-rule:nonzero;stroke:none"
       d="m 1286.886,279.3408 0,58.664 c 0,5.786 -0.104,10.666 -0.313,14.64 -0.209,3.974 -0.836,7.216 -1.883,9.725 -1.045,2.51 -2.666,4.34 -4.863,5.49 -2.195,1.15 -5.28,1.726 -9.254,1.726 -2.789,0 -5.541,-0.612 -8.26,-1.83 -2.719,-1.221 -5.684,-2.946 -8.889,-5.177 l 0,-83.238 -36.809,0 0,58.664 c 0,5.715 -0.123,10.578 -0.367,14.588 -0.244,4.008 -0.888,7.268 -1.933,9.777 -1.046,2.51 -2.667,4.34 -4.864,5.49 -2.195,1.15 -5.246,1.726 -9.149,1.726 -2.998,0 -5.927,-0.698 -8.784,-2.092 -2.86,-1.395 -5.647,-3.032 -8.365,-4.915 l 0,-83.238 -36.6,0 0,117.433 36.6,0 0,-12.967 c 5.994,5.088 11.64,9.062 16.939,11.921 5.298,2.858 11.258,4.288 17.883,4.288 7.179,0 13.488,-1.71 18.927,-5.124 5.437,-3.417 9.585,-8.507 12.444,-15.268 7.04,6.552 13.681,11.59 19.92,15.111 6.238,3.519 12.565,5.281 18.98,5.281 5.437,0 10.316,-0.873 14.64,-2.614 4.321,-1.744 7.98,-4.358 10.979,-7.843 3.276,-3.765 5.734,-8.245 7.373,-13.438 1.636,-5.194 2.458,-11.973 2.458,-20.339 l 0,-76.441 -36.81,0 z" /><path
       inkscape:connector-curvature="0"
       id="path3153"
       style="fill:#ffffff;fill-opacity:1;fill-rule:nonzero;stroke:none"
       d="m 1408.335,316.3584 0,53.227 c -1.814,0.836 -4.044,1.533 -6.692,2.091 -2.651,0.557 -5.299,0.837 -7.948,0.837 -8.784,0 -15.389,-2.842 -19.816,-8.523 -4.428,-5.682 -6.64,-13.611 -6.64,-23.789 0,-5.09 0.329,-9.395 0.993,-12.915 0.662,-3.521 1.899,-6.64 3.712,-9.359 1.742,-2.65 4.027,-4.653 6.85,-6.012 2.823,-1.361 6.431,-2.04 10.823,-2.04 3.277,0 6.499,0.557 9.673,1.673 3.171,1.115 6.186,2.719 9.045,4.81 m 36.6,-23.528 c 0,-10.875 -1.569,-20.112 -4.705,-27.711 -3.138,-7.598 -7.426,-13.525 -12.863,-17.777 -5.438,-4.322 -11.957,-7.44 -19.554,-9.359 -7.6,-1.917 -16.036,-2.876 -25.307,-2.876 -7.809,0 -15.215,0.507 -22.221,1.516 -7.007,1.012 -13.09,2.179 -18.248,3.504 l 0,29.383 4.288,0 c 1.812,-0.695 3.955,-1.464 6.431,-2.299 2.474,-0.836 4.967,-1.604 7.476,-2.301 2.997,-0.767 5.924,-1.395 8.785,-1.882 2.857,-0.487 5.785,-0.733 8.783,-0.733 6.204,0 11.381,0.646 15.529,1.935 4.147,1.291 7.268,3.121 9.36,5.49 2.09,2.441 3.554,5.317 4.391,8.627 0.837,3.311 1.255,7.477 1.255,12.496 l 0,2.196 c -4.114,-3.625 -8.872,-6.535 -14.273,-8.731 -5.405,-2.196 -10.964,-3.294 -16.68,-3.294 -15.198,0 -26.927,4.949 -35.188,14.849 -8.26,9.898 -12.391,24.957 -12.391,45.174 0,9.202 1.27,17.464 3.816,24.783 2.544,7.32 6.081,13.559 10.614,18.719 4.322,4.949 9.55,8.766 15.686,11.45 6.134,2.683 12.512,4.026 19.136,4.026 5.995,0 11.362,-0.768 16.104,-2.301 4.74,-1.534 9.062,-3.591 12.967,-6.169 l 1.359,5.229 35.45,0 0,-103.944 z" /><path
       inkscape:connector-curvature="0"
       id="path3155"
       style="fill:#ffffff;fill-opacity:1;fill-rule:nonzero;stroke:none"
       d="m 1487.437,279.341 -36.599,0 0,162.712 36.599,0 0,-162.712 z" /><path
       inkscape:connector-curvature="0"
       id="path3157"
       style="fill:#ffffff;fill-opacity:1;fill-rule:nonzero;stroke:none"
       d="m 1574.476,353.1675 c -0.21,7.739 -2.005,13.629 -5.386,17.673 -3.382,4.042 -8.557,6.065 -15.528,6.065 -7.11,0 -12.671,-2.128 -16.679,-6.379 -4.01,-4.253 -6.222,-10.039 -6.64,-17.359 l 44.233,0 z m -12.131,-76.963 c -22.169,0 -39.161,5.296 -50.977,15.894 -11.817,10.596 -17.725,25.689 -17.725,45.279 0,19.171 5.506,34.473 16.521,45.907 11.015,11.432 26.42,17.149 46.221,17.149 17.987,0 31.511,-4.846 40.573,-14.535 9.062,-9.69 13.594,-23.564 13.594,-41.619 l 0,-13.176 -80.205,0 c 0.348,-5.437 1.498,-9.986 3.451,-13.646 1.95,-3.661 4.531,-6.572 7.738,-8.732 3.137,-2.162 6.797,-3.713 10.98,-4.653 4.183,-0.942 8.748,-1.412 13.699,-1.412 4.252,0 8.434,0.47 12.549,1.412 4.111,0.94 7.876,2.178 11.293,3.712 2.996,1.323 5.768,2.753 8.313,4.287 2.544,1.533 4.617,2.892 6.222,4.078 l 3.869,0 0,-30.221 c -2.998,-1.186 -5.735,-2.284 -8.209,-3.294 -2.474,-1.01 -5.874,-2.039 -10.195,-3.085 -3.974,-1.046 -8.07,-1.863 -12.287,-2.457 -4.219,-0.592 -9.359,-0.888 -15.425,-0.888" /><path
       inkscape:connector-curvature="0"
       id="path3159"
       style="fill:#cacbc9;fill-opacity:1;fill-rule:nonzero;stroke:none"
       d="m 937.8389,392.7739 14.64,0 0,3.242 c 0,14.36 3.765,25.131 11.294,32.312 7.529,7.179 18.926,10.771 34.194,10.771 5.2971,0 10.2481,-0.193 14.8501,-0.575 2.886,-0.242 5.527,-0.53 7.919,-0.867 l 0,3.35 c -3.345,0.627 -7.319,1.132 -11.919,1.517 -4.602,0.382 -9.5531,0.575 -14.8501,0.575 -15.268,0 -26.665,-3.592 -34.194,-10.771 -7.529,-7.181 -11.294,-17.952 -11.294,-32.312 l 0,-3.242 -14.64,0 0,-25.515 4,0 0,21.515 z" /><path
       inkscape:connector-curvature="0"
       id="path3161"
       style="fill:#cacbc9;fill-opacity:1;fill-rule:nonzero;stroke:none"
       d="m 952.479,367.259 -4,0 0,-87.918 4,0 0,87.918 z" /><path
       inkscape:connector-curvature="0"
       id="path3163"
       style="fill:#cacbc9;fill-opacity:1;fill-rule:nonzero;stroke:none"
       d="m 987.915,396.7739 c -0.056,-0.975 -0.091,-1.985 -0.091,-3.059 l 0,-0.941 25.07,0 0,4 -24.979,0 z" /><path
       inkscape:connector-curvature="0"
       id="path3165"
       style="fill:#cacbc9;fill-opacity:1;fill-rule:nonzero;stroke:none"
       d="m 1023.363,392.7739 32.6,0 0,4 -36.6,0 0,-117.433 4,0 0,113.433 z" /><path
       inkscape:connector-curvature="0"
       id="path3167"
       style="fill:#cacbc9;fill-opacity:1;fill-rule:nonzero;stroke:none"
       d="m 1059.963,375.938 c 1.673,1.532 3.99,3.467 6.953,5.804 2.963,2.335 5.664,4.199 8.105,5.594 2.648,1.603 5.733,2.98 9.255,4.131 3.519,1.15 6.849,1.725 9.986,1.725 1.178,0 2.494,-0.036 3.947,-0.104 l 0,3.686 c -1.186,0.139 -2.51,0.243 -3.974,0.313 -1.463,0.069 -2.789,0.105 -3.973,0.105 -3.137,0 -6.467,-0.575 -9.986,-1.725 -3.522,-1.151 -6.607,-2.528 -9.255,-4.131 -2.441,-1.395 -5.142,-3.259 -8.105,-5.594 -1.069,-0.844 -2.053,-1.633 -2.953,-2.372 l 0,-7.432 z" /><path
       inkscape:connector-curvature="0"
       id="path3169"
       style="fill:#cacbc9;fill-opacity:1;fill-rule:nonzero;stroke:none"
       d="m 1108.05,392.7739 32.6,0 0,4 -36.6,0 0,-117.433 4,0 0,113.433 z" /><path
       inkscape:connector-curvature="0"
       id="path3171"
       style="fill:#cacbc9;fill-opacity:1;fill-rule:nonzero;stroke:none"
       d="m 1253.346,375.624 c 7.04,6.552 13.681,11.589 19.92,15.11 6.238,3.52 12.565,5.282 18.98,5.282 5.437,0 10.316,-0.873 14.64,-2.615 2.731,-1.101 5.195,-2.553 7.398,-4.35 -0.141,0.168 -0.275,0.343 -0.418,0.508 -2.999,3.484 -6.659,6.099 -10.98,7.842 -4.324,1.742 -9.203,2.615 -14.64,2.615 -6.415,0 -12.742,-1.762 -18.98,-5.282 -5.845,-3.298 -12.047,-7.944 -18.595,-13.903 0.987,-1.612 1.885,-3.339 2.675,-5.207" /><path
       inkscape:connector-curvature="0"
       id="path3173"
       style="fill:#cacbc9;fill-opacity:1;fill-rule:nonzero;stroke:none"
       d="m 1187.152,379.8066 c 5.994,5.088 11.641,9.062 16.939,11.921 5.298,2.858 11.258,4.288 17.883,4.288 7.179,0 13.489,-1.709 18.927,-5.124 1.085,-0.682 2.105,-1.45 3.087,-2.265 -2.051,2.492 -4.41,4.583 -7.087,6.265 -5.438,3.415 -11.748,5.124 -18.927,5.124 -6.625,0 -12.585,-1.43 -17.883,-4.288 -4.103,-2.214 -8.418,-5.106 -12.939,-8.657 l 0,-7.264 z" /><path
       inkscape:connector-curvature="0"
       id="path3175"
       style="fill:#cacbc9;fill-opacity:1;fill-rule:nonzero;stroke:none"
       d="m 1290.886,279.3408 0,54.664 c 0,5.786 -0.104,10.666 -0.313,14.64 -0.209,3.974 -0.836,7.216 -1.883,9.725 -1.016,2.441 -2.581,4.233 -4.687,5.388 0.249,-0.439 0.483,-0.896 0.687,-1.388 1.047,-2.509 1.674,-5.751 1.883,-9.725 0.209,-3.974 0.313,-8.854 0.313,-14.64 l 0,-58.664 4,0 z" /><path
       inkscape:connector-curvature="0"
       id="path3177"
       style="fill:#cacbc9;fill-opacity:1;fill-rule:nonzero;stroke:none"
       d="m 1220.615,279.3408 0,54.664 c 0,5.715 -0.123,10.578 -0.367,14.588 -0.244,4.008 -0.889,7.268 -1.934,9.777 -1.017,2.441 -2.582,4.233 -4.687,5.388 0.249,-0.439 0.482,-0.896 0.687,-1.388 1.045,-2.509 1.69,-5.769 1.934,-9.777 0.244,-4.01 0.367,-8.873 0.367,-14.588 l 0,-58.664 4,0 z" /><path
       inkscape:connector-curvature="0"
       id="path3179"
       style="fill:#cacbc9;fill-opacity:1;fill-rule:nonzero;stroke:none"
       d="m 1150.553,392.7739 32.6,0 0,4 -36.6,0 0,-117.433 4,0 0,113.433 z" /><path
       inkscape:connector-curvature="0"
       id="path3181"
       style="fill:#cacbc9;fill-opacity:1;fill-rule:nonzero;stroke:none"
       d="m 1346.037,265.5107 4.288,0 c 1.812,-0.695 3.955,-1.464 6.431,-2.3 2.473,-0.836 4.967,-1.603 7.476,-2.301 2.996,-0.766 5.924,-1.394 8.784,-1.881 2.858,-0.488 5.786,-0.733 8.784,-0.733 6.204,0 11.381,0.646 15.529,1.935 4.146,1.291 7.268,3.121 9.359,5.49 2.091,2.44 3.555,5.316 4.392,8.627 0.837,3.31 1.255,7.476 1.255,12.496 l 0,2.195 c -1.319,-1.162 -2.712,-2.243 -4.163,-3.257 -0.193,-2.829 -0.555,-5.31 -1.092,-7.434 -0.837,-3.311 -2.301,-6.187 -4.392,-8.627 -2.091,-2.369 -5.213,-4.199 -9.359,-5.49 -4.148,-1.289 -9.325,-1.935 -15.529,-1.935 -2.998,0 -5.926,0.245 -8.784,0.733 -2.86,0.487 -5.788,1.115 -8.784,1.881 -2.509,0.698 -5.003,1.465 -7.476,2.301 -2.476,0.836 -4.619,1.605 -6.431,2.3 l -4.288,0 0,-29.384 c 1.276,-0.328 2.61,-0.645 4,-0.954 l 0,26.338 z" /><path
       inkscape:connector-curvature="0"
       id="path3183"
       style="fill:#cacbc9;fill-opacity:1;fill-rule:nonzero;stroke:none"
       d="m 1346.79,291.1895 c -0.197,0.227 -0.402,0.442 -0.596,0.674 -8.26,9.898 -12.391,24.957 -12.391,45.174 0,9.202 1.27,17.464 3.816,24.783 2.544,7.32 6.081,13.558 10.614,18.719 4.322,4.949 9.55,8.766 15.686,11.45 6.134,2.683 12.512,4.026 19.136,4.026 5.995,0 11.362,-0.768 16.104,-2.301 4.74,-1.534 9.062,-3.591 12.967,-6.169 l 1.359,5.228 31.45,0 0,4 -35.45,0 -1.359,-5.228 c -3.905,2.578 -8.227,4.635 -12.967,6.169 -4.742,1.533 -10.109,2.301 -16.104,2.301 -6.624,0 -13.002,-1.343 -19.136,-4.026 -6.136,-2.684 -11.364,-6.501 -15.686,-11.45 -4.533,-5.161 -8.07,-11.399 -10.614,-18.719 -2.546,-7.319 -3.816,-15.581 -3.816,-24.783 0,-20.217 4.131,-35.276 12.391,-45.174 1.426,-1.709 2.963,-3.26 4.596,-4.674" /><path
       inkscape:connector-curvature="0"
       id="path3185"
       style="fill:#cacbc9;fill-opacity:1;fill-rule:nonzero;stroke:none"
       d="m 1412.335,365.5854 c -1.157,0.534 -2.504,1.004 -4,1.424 l 0,-50.651 c -2.859,-2.091 -5.874,-3.695 -9.045,-4.81 -3.174,-1.116 -6.396,-1.673 -9.673,-1.673 -4.392,0 -8,0.679 -10.823,2.04 -0.871,0.419 -1.685,0.907 -2.453,1.45 1.687,-2.369 3.836,-4.191 6.453,-5.45 2.823,-1.361 6.431,-2.04 10.823,-2.04 3.277,0 6.499,0.557 9.673,1.673 3.171,1.115 6.186,2.719 9.045,4.81 l 0,53.227 z" /><path
       inkscape:connector-curvature="0"
       id="path3187"
       style="fill:#cacbc9;fill-opacity:1;fill-rule:nonzero;stroke:none"
       d="m 1454.838,438.0527 32.599,0 0,4 -36.599,0 0,-162.712 4,0 0,158.712 z" /><path
       inkscape:connector-curvature="0"
       id="path3189"
       style="fill:#cacbc9;fill-opacity:1;fill-rule:nonzero;stroke:none"
       d="m 1569.987,369.6353 c 2.793,-3.979 4.298,-9.456 4.488,-16.468 l -39.778,0 c -0.21,-1.283 -0.375,-2.605 -0.455,-4 l 44.233,0 c -0.21,7.739 -2.005,13.629 -5.385,17.673 -0.904,1.08 -1.945,2.003 -3.103,2.795" /><path
       inkscape:connector-curvature="0"
       id="path3191"
       style="fill:#cacbc9;fill-opacity:1;fill-rule:nonzero;stroke:none"
       d="m 1598.369,312.0713 c -2.545,-1.534 -5.316,-2.964 -8.313,-4.287 -3.416,-1.534 -7.181,-2.772 -11.292,-3.712 -4.116,-0.941 -8.297,-1.412 -12.549,-1.412 -4.951,0 -9.517,0.471 -13.7,1.412 -4.182,0.94 -7.842,2.491 -10.98,4.653 -0.439,0.296 -0.864,0.61 -1.28,0.934 1.514,-1.939 3.274,-3.583 5.28,-4.934 3.138,-2.162 6.798,-3.713 10.98,-4.653 4.183,-0.941 8.749,-1.412 13.7,-1.412 4.252,0 8.433,0.471 12.549,1.412 4.111,0.94 7.876,2.178 11.292,3.712 2.997,1.323 5.768,2.753 8.313,4.287 2.479,1.494 4.504,2.82 6.092,3.984 l 0,4.094 -3.869,0 c -1.606,-1.185 -3.679,-2.545 -6.223,-4.078" /><path
       inkscape:connector-curvature="0"
       id="path3193"
       style="fill:#cacbc9;fill-opacity:1;fill-rule:nonzero;stroke:none"
       d="m 1497.643,333.3779 c 0,19.17 5.506,34.472 16.521,45.906 11.015,11.433 26.42,17.15 46.221,17.15 16.104,0 28.619,-3.897 37.569,-11.664 -0.33,0.378 -0.653,0.762 -0.996,1.129 -9.062,9.688 -22.586,14.535 -40.573,14.535 -19.801,0 -35.206,-5.717 -46.221,-17.15 -11.015,-11.434 -16.521,-26.736 -16.521,-45.906 0,-19.591 5.908,-34.684 17.725,-45.279 l 0.088,-0.075 c -9.204,10.284 -13.813,24.065 -13.813,41.354" /><path
       inkscape:connector-curvature="0"
       id="path3195"
       style="fill:#356fc0;fill-opacity:1;fill-rule:nonzero;stroke:none"
       d="m 1140.695,442.053 -36.695,0 0,-28.548 36.695,0 0,28.548 z" /><path
       inkscape:connector-curvature="0"
       id="path3197"
       style="fill:#265c8a;fill-opacity:1;fill-rule:nonzero;stroke:none"
       d="m 1108,413.5047 -4,0 0,28.548 36.695,0 0,-4 -32.695,0 0,-24.548 z" /><path
       inkscape:connector-curvature="0"
       id="path3199"
       style="fill:#ffffff;fill-opacity:1;fill-rule:nonzero;stroke:none"
       d="m 1020.166,174.4464 -2.252,0 c -1.395,0.418 -3.574,0.957 -6.535,1.62 -2.965,0.662 -5.769,0.994 -8.419,0.994 -7.3902,0 -12.4272,-1.359 -15.1102,-4.078 -2.684,-2.719 -4.026,-7.809 -4.026,-15.267 l 0,-0.942 36.3422,0 0,-25.514 -35.0882,0 0,-91.919 -36.599,0 0,91.919 -14.64,0 0,25.514 14.64,0 0,3.242 c 0,14.361 3.765,25.131 11.294,32.313 7.529,7.179 18.926,10.77 34.194,10.77 5.297,0 10.2482,-0.192 14.8502,-0.575 4.6,-0.385 8.004,-0.889 11.349,-1.517 l 0,-26.56" /><path
       inkscape:connector-curvature="0"
       id="path3201"
       style="fill:#d4d6d3;fill-opacity:1;fill-rule:nonzero;stroke:none"
       d="m 937.8388,131.2589 -4,0 0,25.515 14.64,0 0,3.242 c 0,14.36 3.765,25.131 11.294,32.312 7.529,7.18 18.926,10.771 34.194,10.771 5.297,0 10.2482,-0.193 14.8502,-0.576 4.6,-0.384 8.004,-0.888 11.349,-1.516 l 0,-3.351 c -2.392,0.338 -4.463,0.626 -7.349,0.868 -4.602,0.382 -9.553,0.575 -14.8502,0.575 -15.268,0 -26.665,-3.591 -34.194,-10.771 -7.529,-7.182 -11.294,-17.952 -11.294,-32.312 l 0,-3.243 -14.64,0 0,-21.514" /><path
       inkscape:connector-curvature="0"
       id="path3203"
       style="fill:#d4d6d3;fill-opacity:1;fill-rule:nonzero;stroke:none"
       d="m 952.479,39.341 -4,0 0,87.918 4,0 0,-87.918 z" /><path
       inkscape:connector-curvature="0"
       id="path3205"
       style="fill:#d4d6d3;fill-opacity:1;fill-rule:nonzero;stroke:none"
       d="m 1020.166,152.7734 -32.3422,0 0,0.941 c 0,1.075 0.035,2.084 0.091,3.059 l 32.2512,0 0,-4" /><path
       inkscape:connector-curvature="0"
       id="path3207"
       style="fill:#356fc0;fill-opacity:1;fill-rule:nonzero;stroke:none"
       d="m 1020.166,67.889 -28.666,0 0,-28.548 28.666,0 0,28.548 z" /><path
       inkscape:connector-curvature="0"
       id="path3209"
       style="fill:#265c8a;fill-opacity:1;fill-rule:nonzero;stroke:none"
       d="m 995.4999,39.3407 -4,0 0,28.548 28.6661,0 0,-4 -24.6661,0 0,-24.548 z" /><g
       id="g3493"
       inkscape:export-filename="/Users/svd/git/frimgle/src/main/svg/f.57x57.png"
       inkscape:export-xdpi="21.450001"
       inkscape:export-ydpi="21.450001"><g
         transform="translate(7.0284856,7.4426688)"
         id="g3442"><path
           inkscape:connector-curvature="0"
           id="path3133"
           style="fill:#30363d;fill-opacity:1;fill-rule:nonzero;stroke:none"
           d="m 169.1666,174.4464 -2.253,0 c -1.395,0.418 -3.573,0.957 -6.535,1.62 -2.964,0.662 -5.77,0.994 -8.419,0.994 -7.39,0 -12.427,-1.359 -15.11,-4.078 -2.684,-2.719 -4.026,-7.809 -4.026,-15.267 l 0,-0.942 36.343,0 0,-25.514 -35.088,0 0,-91.919 -36.6,0 0,91.919 -14.64,0 0,25.514 14.64,0 0,3.242 c 0,14.361 3.765,25.131 11.294,32.313 7.529,7.179 18.927,10.77 34.195,10.77 5.297,0 10.248,-0.192 14.848,-0.575 4.602,-0.385 8.005,-0.889 11.351,-1.517 l 0,-26.56" /><path
           inkscape:connector-curvature="0"
           id="path3135"
           style="fill:#222426;fill-opacity:1;fill-rule:nonzero;stroke:none"
           d="m 86.8387,131.2589 -4,0 0,25.515 14.64,0 0,3.242 c 0,14.36 3.765,25.131 11.294,32.312 7.529,7.18 18.927,10.771 34.195,10.771 5.297,0 10.247,-0.193 14.848,-0.576 4.601,-0.384 8.005,-0.888 11.351,-1.516 l 0,-3.351 c -2.394,0.338 -4.463,0.626 -7.351,0.868 -4.6,0.382 -9.551,0.575 -14.849,0.575 -15.267,0 -26.665,-3.591 -34.194,-10.771 -7.529,-7.182 -11.294,-17.952 -11.294,-32.312 l 0,-3.243 -14.64,0 0,-21.514" /><path
           inkscape:connector-curvature="0"
           id="path3137"
           style="fill:#222426;fill-opacity:1;fill-rule:nonzero;stroke:none"
           d="m 101.479,39.341 -4,0 0,87.918 4,0 0,-87.918 z" /><path
           inkscape:connector-curvature="0"
           id="path3139"
           style="fill:#222426;fill-opacity:1;fill-rule:nonzero;stroke:none"
           d="m 169.1666,152.7734 -32.343,0 0,0.941 c 0,1.075 0.036,2.084 0.091,3.059 l 32.252,0 0,-4" /><path
           inkscape:connector-curvature="0"
           id="path3141"
           style="fill:#356fc0;fill-opacity:1;fill-rule:nonzero;stroke:none"
           d="m 169.167,67.889 -28.667,0 0,-28.548 28.667,0 0,28.548 z" /><path
           inkscape:connector-curvature="0"
           id="path3143"
           style="fill:#265c8a;fill-opacity:1;fill-rule:nonzero;stroke:none"
           d="m 144.5002,39.3407 -4,0 0,28.548 28.666,0 0,-4 -24.666,0 0,-24.548 z" /></g><rect
         transform="scale(1,-1)"
         y="-224.34525"
         x="37.348354"
         height="191.36586"
         width="191.36586"
         id="rect3491"
         style="fill:none;stroke:none" /></g><g
       id="g3082"
       transform="translate(-3.2,14.4)"
       inkscape:export-filename="/Users/svd/git/frimgle/src/main/svg/frimgle.320x98.png"
       inkscape:export-xdpi="30.15"
       inkscape:export-ydpi="30.15"><g
         id="g3450"><path
           inkscape:connector-curvature="0"
           id="path3059"
           style="fill:#30363d;fill-opacity:1;fill-rule:nonzero;stroke:none"
           d="m 169.737,414.4461 -2.824,0 c -1.394,0.418 -3.573,0.957 -6.535,1.621 -2.964,0.661 -5.769,0.993 -8.418,0.993 -7.39,0 -12.427,-1.359 -15.11,-4.078 -2.684,-2.719 -4.026,-7.808 -4.026,-15.267 l 0,-0.941 29.07,0 0,-25.515 -27.815,0 0,-91.918 -36.6,0 0,91.918 -14.64,0 0,25.515 14.64,0 0,3.241 c 0,14.361 3.765,25.131 11.293,32.313 7.53,7.179 18.928,10.77 34.195,10.77 5.297,0 10.248,-0.193 14.849,-0.575 4.601,-0.384 8.575,-0.889 11.921,-1.516 l 0,-26.561" /><path
           inkscape:connector-curvature="0"
           id="path3061"
           style="fill:#30363d;fill-opacity:1;fill-rule:nonzero;stroke:none"
           d="m 247.2089,362.1607 -3.033,0 c -1.395,0.487 -3.416,0.853 -6.065,1.098 -2.65,0.244 -5.578,0.366 -8.784,0.366 -3.834,0 -7.86,-0.558 -12.077,-1.673 -4.219,-1.116 -8.314,-2.441 -12.287,-3.974 l 0,-78.637 -36.6,0 0,117.433 36.6,0 0,-16.836 c 1.673,1.533 3.99,3.467 6.954,5.804 2.962,2.335 5.663,4.199 8.104,5.594 2.648,1.603 5.733,2.981 9.254,4.131 3.52,1.15 6.85,1.725 9.987,1.725 1.184,0 2.51,-0.036 3.973,-0.104 1.464,-0.071 2.788,-0.175 3.974,-0.314 l 0,-34.613" /><path
           inkscape:connector-curvature="0"
           id="path3063"
           style="fill:#30363d;fill-opacity:1;fill-rule:nonzero;stroke:none"
           d="m 289.65,279.341 -36.6,0 0,117.433 36.6,0 0,-117.433 z" /><path
           inkscape:connector-curvature="0"
           id="path3065"
           style="fill:#30363d;fill-opacity:1;fill-rule:nonzero;stroke:none"
           d="m 435.8856,279.3409 0,58.664 c 0,5.786 -0.104,10.666 -0.314,14.64 -0.208,3.974 -0.835,7.215 -1.882,9.725 -1.045,2.51 -2.666,4.34 -4.862,5.49 -2.196,1.15 -5.281,1.726 -9.255,1.726 -2.789,0 -5.542,-0.612 -8.261,-1.831 -2.718,-1.22 -5.682,-2.945 -8.888,-5.176 l 0,-83.238 -36.809,0 0,58.664 c 0,5.715 -0.123,10.578 -0.366,14.588 -0.245,4.008 -0.889,7.267 -1.935,9.777 -1.045,2.51 -2.666,4.34 -4.862,5.49 -2.196,1.15 -5.247,1.726 -9.15,1.726 -2.998,0 -5.926,-0.698 -8.784,-2.092 -2.859,-1.395 -5.647,-3.032 -8.366,-4.915 l 0,-83.238 -36.599,0 0,117.433 36.599,0 0,-12.967 c 5.995,5.088 11.642,9.062 16.941,11.921 5.297,2.858 11.258,4.288 17.881,4.288 7.18,0 13.49,-1.71 18.928,-5.124 5.437,-3.417 9.584,-8.507 12.444,-15.268 7.04,6.552 13.681,11.589 19.92,15.111 6.238,3.519 12.566,5.281 18.981,5.281 5.436,0 10.315,-0.873 14.639,-2.615 4.321,-1.743 7.981,-4.358 10.98,-7.842 3.275,-3.765 5.733,-8.245 7.372,-13.438 1.636,-5.194 2.458,-11.973 2.458,-20.339 l 0,-76.441 -36.81,0" /><path
           inkscape:connector-curvature="0"
           id="path3067"
           style="fill:#30363d;fill-opacity:1;fill-rule:nonzero;stroke:none"
           d="m 557.3351,316.3586 0,53.227 c -1.815,0.836 -4.044,1.533 -6.692,2.091 -2.651,0.557 -5.299,0.837 -7.948,0.837 -8.784,0 -15.39,-2.842 -19.816,-8.523 -4.428,-5.683 -6.64,-13.612 -6.64,-23.789 0,-5.09 0.329,-9.395 0.993,-12.915 0.661,-3.521 1.899,-6.64 3.712,-9.359 1.741,-2.65 4.026,-4.653 6.85,-6.013 2.823,-1.36 6.43,-2.04 10.823,-2.04 3.277,0 6.499,0.558 9.673,1.674 3.171,1.114 6.185,2.719 9.045,4.81 m 36.599,-23.529 c 0,-10.874 -1.568,-20.111 -4.705,-27.711 -3.137,-7.597 -7.425,-13.524 -12.862,-17.776 -5.438,-4.322 -11.957,-7.44 -19.555,-9.359 -7.599,-1.917 -16.035,-2.876 -25.306,-2.876 -7.809,0 -15.215,0.507 -22.221,1.515 -7.007,1.013 -13.09,2.18 -18.248,3.505 l 0,29.383 4.288,0 c 1.812,-0.695 3.955,-1.464 6.431,-2.299 2.473,-0.837 4.967,-1.604 7.476,-2.301 2.996,-0.767 5.924,-1.395 8.785,-1.882 2.857,-0.488 5.785,-0.733 8.783,-0.733 6.204,0 11.381,0.646 15.529,1.935 4.147,1.291 7.267,3.121 9.359,5.49 2.091,2.441 3.555,5.316 4.392,8.627 0.837,3.311 1.255,7.477 1.255,12.496 l 0,2.196 c -4.114,-3.626 -8.872,-6.536 -14.274,-8.731 -5.404,-2.196 -10.964,-3.294 -16.679,-3.294 -15.198,0 -26.927,4.949 -35.188,14.849 -8.261,9.898 -12.391,24.957 -12.391,45.174 0,9.202 1.27,17.463 3.816,24.783 2.544,7.32 6.081,13.558 10.614,18.719 4.322,4.949 9.55,8.766 15.686,11.45 6.133,2.683 12.511,4.026 19.136,4.026 5.995,0 11.362,-0.768 16.104,-2.301 4.74,-1.534 9.062,-3.591 12.967,-6.169 l 1.359,5.229 35.449,0 0,-103.945" /><path
           inkscape:connector-curvature="0"
           id="path3069"
           style="fill:#30363d;fill-opacity:1;fill-rule:nonzero;stroke:none"
           d="m 636.437,279.341 -36.599,0 0,162.712 36.599,0 0,-162.712 z" /><path
           inkscape:connector-curvature="0"
           id="path3071"
           style="fill:#30363d;fill-opacity:1;fill-rule:nonzero;stroke:none"
           d="m 723.4755,353.1675 c -0.21,7.739 -2.005,13.629 -5.385,17.673 -3.382,4.042 -8.558,6.065 -15.529,6.065 -7.11,0 -12.671,-2.128 -16.679,-6.379 -4.009,-4.253 -6.222,-10.039 -6.64,-17.359 l 44.233,0 m -12.131,-76.963 c -22.169,0 -39.161,5.297 -50.977,15.894 -11.816,10.596 -17.725,25.688 -17.725,45.28 0,19.17 5.506,34.471 16.522,45.906 11.014,11.432 26.42,17.149 46.22,17.149 17.987,0 31.511,-4.846 40.574,-14.535 9.061,-9.691 13.593,-23.564 13.593,-41.619 l 0,-13.176 -80.205,0 c 0.348,-5.437 1.498,-9.986 3.452,-13.646 1.95,-3.66 4.53,-6.572 7.737,-8.732 3.137,-2.162 6.797,-3.713 10.98,-4.653 4.183,-0.942 8.748,-1.412 13.7,-1.412 4.251,0 8.433,0.47 12.548,1.412 4.111,0.94 7.876,2.178 11.293,3.712 2.996,1.323 5.768,2.752 8.313,4.287 2.544,1.533 4.617,2.892 6.222,4.078 l 3.869,0 0,-30.221 c -2.998,-1.186 -5.735,-2.284 -8.208,-3.294 -2.475,-1.01 -5.875,-2.039 -10.196,-3.085 -3.974,-1.046 -8.07,-1.863 -12.287,-2.457 -4.219,-0.591 -9.359,-0.888 -15.425,-0.888" /><path
           inkscape:connector-curvature="0"
           id="path3073"
           style="fill:#222426;fill-opacity:1;fill-rule:nonzero;stroke:none"
           d="m 86.8387,371.2587 -4,0 0,25.515 14.64,0 0,3.242 c 0,14.36 3.765,25.131 11.294,32.312 7.529,7.18 18.927,10.771 34.195,10.771 5.297,0 10.247,-0.193 14.848,-0.575 4.601,-0.385 8.575,-0.889 11.921,-1.517 l 0,-3.35 c -2.393,0.337 -5.033,0.626 -7.921,0.867 -4.6,0.382 -9.551,0.575 -14.849,0.575 -15.267,0 -26.665,-3.591 -34.194,-10.771 -7.529,-7.181 -11.294,-17.952 -11.294,-32.312 l 0,-3.242 -14.64,0 0,-21.515" /><path
           inkscape:connector-curvature="0"
           id="path3075"
           style="fill:#222426;fill-opacity:1;fill-rule:nonzero;stroke:none"
           d="m 101.479,279.341 -4,0 0,87.918 4,0 0,-87.918 z" /><path
           inkscape:connector-curvature="0"
           id="path3077"
           style="fill:#222426;fill-opacity:1;fill-rule:nonzero;stroke:none"
           d="m 161.894,392.774 -25.07,0 0,0.941 c 0,1.074 0.036,2.084 0.091,3.059 l 24.979,0 0,-4" /><path
           inkscape:connector-curvature="0"
           id="path3079"
           style="fill:#222426;fill-opacity:1;fill-rule:nonzero;stroke:none"
           d="m 172.3628,279.3409 -4,0 0,117.433 36.6,0 0,-4 -32.6,0 0,-113.433 z" /><path
           inkscape:connector-curvature="0"
           id="path3081"
           style="fill:#222426;fill-opacity:1;fill-rule:nonzero;stroke:none"
           d="m 208.9626,375.9379 0,7.432 c 0.901,0.739 1.884,1.528 2.954,2.372 2.962,2.335 5.663,4.199 8.104,5.594 2.648,1.603 5.733,2.981 9.254,4.131 3.52,1.15 6.85,1.725 9.987,1.725 1.185,0 2.51,-0.036 3.974,-0.105 1.464,-0.07 2.787,-0.174 3.973,-0.313 l 0,-3.685 c -1.453,0.067 -2.77,0.103 -3.947,0.103 -3.137,0 -6.467,-0.575 -9.987,-1.725 -3.521,-1.15 -6.606,-2.528 -9.254,-4.131 -2.441,-1.395 -5.142,-3.259 -8.104,-5.594 -2.964,-2.337 -5.281,-4.272 -6.954,-5.804" /><path
           inkscape:connector-curvature="0"
           id="path3083"
           style="fill:#222426;fill-opacity:1;fill-rule:nonzero;stroke:none"
           d="m 257.0498,279.3409 -4,0 0,117.433 36.6,0 0,-4 -32.6,0 0,-113.433 z" /><path
           inkscape:connector-curvature="0"
           id="path3085"
           style="fill:#454749;fill-opacity:1;fill-rule:nonzero;stroke:none"
           d="m 417.8509,394.4983 c 0.004,0.002 0.007,0.004 0.011,0.006 -0.004,-0.002 -0.007,-0.004 -0.011,-0.006 m 0.066,0.038 c 0.008,0.004 0.015,0.008 0.022,0.013 -0.007,-0.005 -0.014,-0.009 -0.022,-0.013 m 0.067,0.038 c 0.013,0.008 0.027,0.016 0.04,0.023 -0.013,-0.008 -0.026,-0.015 -0.04,-0.023 m 0.068,0.039 c 0.018,0.01 0.037,0.021 0.055,0.031 -0.019,-0.011 -0.037,-0.021 -0.055,-0.031 m 0.07,0.04 c 0.019,0.01 0.038,0.021 0.057,0.032 -0.019,-0.011 -0.038,-0.022 -0.057,-0.032 m 0.073,0.041 c 0.024,0.013 0.047,0.027 0.071,0.04 -0.023,-0.013 -0.048,-0.027 -0.071,-0.04" /><path
           inkscape:connector-curvature="0"
           id="path3087"
           style="fill:#222426;fill-opacity:1;fill-rule:nonzero;stroke:none"
           d="m 402.3453,375.6239 c -0.79,1.868 -1.688,3.595 -2.674,5.207 6.393,5.818 12.456,10.385 18.18,13.667 0.003,0.003 0.007,0.004 0.011,0.007 0.018,0.01 0.036,0.021 0.055,0.031 0.007,0.005 0.015,0.009 0.022,0.013 0.015,0.009 0.03,0.017 0.045,0.026 0.013,0.007 0.027,0.015 0.04,0.022 0.009,0.006 0.018,0.011 0.027,0.016 0.019,0.011 0.037,0.021 0.056,0.032 0.005,0.003 0.009,0.005 0.015,0.008 0.019,0.011 0.038,0.022 0.057,0.032 0.005,0.003 0.01,0.006 0.015,0.009 0.024,0.014 0.048,0.027 0.072,0.041 6.238,3.519 12.565,5.281 18.98,5.281 5.436,0 10.315,-0.873 14.639,-2.615 4.322,-1.743 7.981,-4.358 10.98,-7.842 0.143,-0.165 0.277,-0.34 0.418,-0.508 -2.202,1.797 -4.667,3.249 -7.398,4.351 -4.324,1.741 -9.203,2.614 -14.639,2.614 -6.415,0 -12.742,-1.762 -18.981,-5.282 -6.239,-3.52 -12.88,-8.558 -19.92,-15.11" /><path
           inkscape:connector-curvature="0"
           id="path3089"
           style="fill:#454749;fill-opacity:1;fill-rule:nonzero;stroke:none"
           d="m 348.4139,395.3567 c 0.002,0.001 0.004,0.002 0.006,0.004 -0.002,-0.002 -0.004,-0.003 -0.006,-0.004 m 0.091,0.05 c 0.012,0.007 0.024,0.014 0.036,0.02 -0.012,-0.006 -0.024,-0.013 -0.036,-0.02 m 0.103,0.057 c 0.035,0.019 0.069,0.038 0.103,0.057 -0.034,-0.019 -0.068,-0.038 -0.103,-0.057 m 0.139,0.076 c 0.027,0.015 0.054,0.03 0.08,0.044 -0.027,-0.014 -0.053,-0.029 -0.08,-0.044 m 0.117,0.065 c 0.028,0.015 0.056,0.03 0.084,0.045 -0.028,-0.015 -0.056,-0.03 -0.084,-0.045 m 0.114,0.061 c 0.039,0.021 0.077,0.042 0.115,0.062 -0.039,-0.02 -0.076,-0.041 -0.115,-0.062" /><path
           inkscape:connector-curvature="0"
           id="path3091"
           style="fill:#222426;fill-opacity:1;fill-rule:nonzero;stroke:none"
           d="m 336.152,379.8067 0,7.264 c 4.273,3.356 8.361,6.123 12.262,8.286 0.002,0.001 0.004,0.002 0.006,0.003 0.028,0.016 0.056,0.032 0.084,0.047 0.013,0.007 0.025,0.014 0.037,0.02 0.023,0.013 0.045,0.025 0.067,0.037 0.035,0.019 0.069,0.038 0.103,0.057 0.012,0.006 0.024,0.013 0.036,0.019 0.027,0.015 0.053,0.03 0.08,0.044 0.013,0.007 0.025,0.014 0.037,0.02 0.028,0.016 0.056,0.031 0.084,0.046 0.01,0.005 0.02,0.011 0.03,0.016 0.039,0.021 0.076,0.042 0.114,0.062 5.298,2.858 11.258,4.288 17.882,4.288 7.179,0 13.489,-1.71 18.927,-5.124 2.677,-1.682 5.037,-3.773 7.088,-6.265 -0.983,0.815 -2.002,1.583 -3.087,2.265 -5.439,3.415 -11.749,5.124 -18.928,5.124 -6.624,0 -12.584,-1.43 -17.882,-4.288 -5.298,-2.859 -10.945,-6.833 -16.94,-11.921" /><path
           inkscape:connector-curvature="0"
           id="path3093"
           style="fill:#454749;fill-opacity:1;fill-rule:nonzero;stroke:none"
           d="m 433.6666,362.4251 c -0.004,0.009 -0.008,0.018 -0.012,0.028 0.004,-0.01 0.008,-0.019 0.012,-0.028 m -0.016,0.038 c -0.195,0.456 -0.414,0.883 -0.648,1.294 0.006,-0.003 0.011,-0.006 0.017,-0.009 0.229,-0.406 0.439,-0.834 0.631,-1.285" /><path
           inkscape:connector-curvature="0"
           id="path3095"
           style="fill:#222426;fill-opacity:1;fill-rule:nonzero;stroke:none"
           d="m 439.8857,279.3409 -4,0 0,58.664 c 0,5.786 -0.104,10.666 -0.314,14.64 -0.208,3.974 -0.835,7.215 -1.882,9.725 -0.008,0.019 -0.015,0.037 -0.023,0.055 -0.004,0.009 -0.008,0.019 -0.012,0.028 -10e-4,0.003 -0.003,0.007 -0.004,0.011 -0.192,0.45 -0.402,0.878 -0.631,1.284 2.097,-1.155 3.657,-2.944 4.67,-5.378 1.047,-2.51 1.674,-5.751 1.882,-9.725 0.21,-3.974 0.314,-8.854 0.314,-14.64 l 0,-54.664" /><path
           inkscape:connector-curvature="0"
           id="path3097"
           style="fill:#454749;fill-opacity:1;fill-rule:nonzero;stroke:none"
           d="m 363.2938,362.4182 c -0.2,0.473 -0.426,0.914 -0.666,1.34 0.005,-0.003 0.01,-0.006 0.015,-0.009 0.237,-0.42 0.454,-0.864 0.651,-1.331" /><path
           inkscape:connector-curvature="0"
           id="path3099"
           style="fill:#222426;fill-opacity:1;fill-rule:nonzero;stroke:none"
           d="m 369.6148,279.3409 -4,0 0,58.664 c 0,5.715 -0.123,10.578 -0.366,14.588 -0.245,4.008 -0.889,7.267 -1.935,9.777 -0.007,0.016 -0.013,0.032 -0.02,0.048 -0.197,0.468 -0.414,0.911 -0.651,1.331 2.097,-1.155 3.657,-2.945 4.671,-5.379 1.046,-2.51 1.69,-5.769 1.935,-9.777 0.243,-4.01 0.366,-8.873 0.366,-14.588 l 0,-54.664" /><path
           inkscape:connector-curvature="0"
           id="path3101"
           style="fill:#222426;fill-opacity:1;fill-rule:nonzero;stroke:none"
           d="m 299.5522,279.3409 -4,0 0,117.433 36.6,0 0,-4 -32.6,0 0,-113.433 z" /><path
           inkscape:connector-curvature="0"
           id="path3103"
           style="fill:#454749;fill-opacity:1;fill-rule:nonzero;stroke:none"
           d="m 493.6253,239.4939 c -0.887,0.207 -1.75,0.418 -2.588,0.633 0.838,-0.215 1.701,-0.426 2.588,-0.633 m 62.474,38.93 c 0,10e-4 0,10e-4 10e-4,0.002 -10e-4,-0.001 -10e-4,-0.001 -10e-4,-0.002 m 0.095,0.394 c 10e-4,10e-4 10e-4,0.002 10e-4,0.003 0,-10e-4 0,-0.002 -10e-4,-0.003 m 0.019,0.077 c 0,0.002 0,0.003 10e-4,0.005 -10e-4,-0.002 -10e-4,-0.003 -10e-4,-0.005 m 0.016,0.069 c 0.002,0.012 0.005,0.024 0.008,0.035 -0.003,-0.011 -0.006,-0.023 -0.008,-0.035 m 0.012,0.055 c 0.449,1.971 0.758,4.227 0.931,6.762 0.001,0.001 0.001,0.001 0.002,0.002 -0.172,-2.538 -0.483,-4.792 -0.933,-6.764" /><path
           inkscape:connector-curvature="0"
           id="path3105"
           style="fill:#222426;fill-opacity:1;fill-rule:nonzero;stroke:none"
           d="m 495.0372,239.1729 c -0.477,0.106 -0.948,0.213 -1.412,0.321 -0.887,0.207 -1.75,0.418 -2.588,0.633 l 0,29.384 4.288,0 c 1.812,-0.696 3.955,-1.464 6.431,-2.3 2.473,-0.836 4.966,-1.603 7.476,-2.301 2.996,-0.766 5.924,-1.394 8.784,-1.882 2.858,-0.487 5.785,-0.732 8.784,-0.732 6.204,0 11.381,0.645 15.529,1.934 4.147,1.292 7.267,3.122 9.359,5.491 2.091,2.44 3.555,5.316 4.392,8.627 0.006,0.025 0.013,0.05 0.019,0.076 0,10e-4 10e-4,10e-4 10e-4,0.002 0.032,0.129 0.064,0.26 0.095,0.392 0,10e-4 0,0.002 0,0.003 0.006,0.025 0.012,0.049 0.018,0.074 0,0.002 0,0.003 10e-4,0.005 0.005,0.021 0.01,0.042 0.015,0.064 0.002,0.012 0.005,0.024 0.008,0.035 10e-4,0.007 0.003,0.014 0.004,0.02 0.45,1.972 0.761,4.226 0.933,6.764 1.45,1.014 2.842,2.095 4.161,3.256 l 0,-2.195 c 0,-5.019 -0.418,-9.186 -1.255,-12.496 -0.837,-3.311 -2.301,-6.187 -4.392,-8.627 -2.092,-2.369 -5.212,-4.199 -9.359,-5.491 -4.148,-1.289 -9.325,-1.934 -15.529,-1.934 -2.998,0 -5.926,0.245 -8.783,0.732 -2.861,0.488 -5.789,1.115 -8.785,1.882 -2.509,0.698 -5.003,1.465 -7.477,2.301 -2.475,0.836 -4.619,1.604 -6.43,2.3 l -4.288,0 0,-26.338" /><path
           inkscape:connector-curvature="0"
           id="path3107"
           style="fill:#454749;fill-opacity:1;fill-rule:nonzero;stroke:none"
           d="m 491.265,295.7786 c -0.002,0.003 -0.005,0.006 -0.007,0.009 0.002,-0.003 0.004,-0.006 0.007,-0.009" /><path
           inkscape:connector-curvature="0"
           id="path3109"
           style="fill:#222426;fill-opacity:1;fill-rule:nonzero;stroke:none"
           d="m 495.7899,291.1895 c -1.606,1.39 -3.119,2.914 -4.525,4.589 -0.002,0.003 -0.005,0.006 -0.007,0.009 -0.021,0.025 -0.042,0.05 -0.064,0.076 -8.261,9.898 -12.391,24.957 -12.391,45.174 0,9.202 1.27,17.463 3.816,24.783 2.544,7.32 6.081,13.559 10.615,18.719 4.321,4.949 9.549,8.766 15.685,11.45 6.134,2.683 12.512,4.026 19.136,4.026 5.995,0 11.362,-0.768 16.104,-2.301 4.741,-1.534 9.062,-3.591 12.967,-6.169 l 1.359,5.229 35.45,0 0,-4 -31.449,0 -1.36,-5.229 c -3.905,2.578 -8.227,4.635 -12.967,6.169 -4.742,1.533 -10.109,2.301 -16.104,2.301 -6.624,0 -13.002,-1.343 -19.136,-4.026 -6.136,-2.684 -11.364,-6.501 -15.686,-11.45 -4.533,-5.161 -8.07,-11.399 -10.614,-18.719 -2.546,-7.32 -3.816,-15.581 -3.816,-24.783 0,-20.217 4.131,-35.276 12.391,-45.174 0.194,-0.232 0.399,-0.447 0.596,-0.674" /><path
           inkscape:connector-curvature="0"
           id="path3111"
           style="fill:#454749;fill-opacity:1;fill-rule:nonzero;stroke:none"
           d="m 527.7941,311.915 c -0.023,0.011 -0.046,0.022 -0.069,0.034 0.023,-0.012 0.046,-0.023 0.069,-0.034 m -0.108,0.052 c -0.014,0.007 -0.029,0.015 -0.043,0.022 0.014,-0.007 0.029,-0.015 0.043,-0.022 m -0.062,0.031 c -0.799,0.395 -1.554,0.842 -2.266,1.342 -0.005,0.009 -0.011,0.017 -0.017,0.025 0.718,-0.507 1.476,-0.967 2.283,-1.367" /><path
           inkscape:connector-curvature="0"
           id="path3113"
           style="fill:#222426;fill-opacity:1;fill-rule:nonzero;stroke:none"
           d="m 542.617,305.8748 c -4.392,0 -8,0.68 -10.823,2.04 -2.608,1.255 -4.751,3.069 -6.436,5.426 0.712,-0.5 1.467,-0.948 2.266,-1.343 0.006,-0.003 0.012,-0.006 0.019,-0.009 0.014,-0.007 0.029,-0.014 0.044,-0.022 0.012,-0.006 0.025,-0.012 0.038,-0.018 0.023,-0.011 0.046,-0.023 0.069,-0.034 2.823,-1.36 6.43,-2.04 10.823,-2.04 3.277,0 6.499,0.558 9.673,1.674 3.171,1.114 6.185,2.719 9.045,4.81 l 0,50.651 c 1.496,-0.42 2.843,-0.891 4,-1.425 l 0,-53.226 c -2.859,-2.091 -5.874,-3.696 -9.045,-4.81 -3.174,-1.116 -6.397,-1.674 -9.673,-1.674" /><path
           inkscape:connector-curvature="0"
           id="path3115"
           style="fill:#222426;fill-opacity:1;fill-rule:nonzero;stroke:none"
           d="m 603.8381,279.3409 -4,0 0,162.712 36.598,0 0,-4 -32.598,0 0,-158.712 z" /><path
           inkscape:connector-curvature="0"
           id="path3117"
           style="fill:#454749;fill-opacity:1;fill-rule:nonzero;stroke:none"
           d="m 723.4731,353.2518 c 0,0.017 -0.001,0.034 -0.001,0.051 0,-0.017 0.001,-0.034 0.001,-0.051 m -0.003,0.084 c 0,0.021 -10e-4,0.043 -10e-4,0.063 0,-0.021 10e-4,-0.042 10e-4,-0.063 m -0.002,0.082 c -0.001,0.024 -0.002,0.049 -0.002,0.074 0,-0.025 10e-4,-0.05 0.002,-0.074 m -0.003,0.079 c -0.228,6.854 -1.729,12.222 -4.478,16.138 0.016,-0.011 0.032,-0.022 0.049,-0.033 2.727,-3.912 4.203,-9.279 4.429,-16.105" /><path
           inkscape:connector-curvature="0"
           id="path3119"
           style="fill:#222426;fill-opacity:1;fill-rule:nonzero;stroke:none"
           d="m 727.4755,349.1674 -44.233,0 c 0.08,1.395 0.245,2.716 0.455,4 l 39.778,0 c -10e-4,0.028 -0.002,0.056 -0.002,0.084 -10e-4,0.017 -10e-4,0.035 -0.002,0.051 0,0.012 -10e-4,0.022 -10e-4,0.034 -10e-4,0.021 -10e-4,0.042 -0.002,0.063 0,0.006 0,0.012 0,0.018 -10e-4,0.024 -0.002,0.05 -0.003,0.074 0,0.002 0,0.003 0,0.005 -0.227,6.826 -1.703,12.194 -4.43,16.106 1.139,-0.785 2.164,-1.698 3.054,-2.762 3.381,-4.044 5.176,-9.934 5.386,-17.673" /><path
           inkscape:connector-curvature="0"
           id="path3121"
           style="fill:#454749;fill-opacity:1;fill-rule:nonzero;stroke:none"
           d="m 690.5353,308.7256 c -0.435,0.293 -0.858,0.599 -1.27,0.92 -0.003,0.005 -0.007,0.009 -0.011,0.014 0.417,-0.325 0.841,-0.638 1.281,-0.934" /><path
           inkscape:connector-curvature="0"
           id="path3123"
           style="fill:#222426;fill-opacity:1;fill-rule:nonzero;stroke:none"
           d="m 719.2147,298.6602 c -4.951,0 -9.516,0.471 -13.699,1.412 -4.183,0.94 -7.843,2.491 -10.981,4.653 -2,1.348 -3.757,2.988 -5.269,4.92 0.412,-0.32 0.835,-0.627 1.27,-0.92 3.137,-2.162 6.797,-3.713 10.98,-4.653 4.183,-0.941 8.748,-1.412 13.699,-1.412 4.252,0 8.434,0.471 12.549,1.412 4.111,0.94 7.876,2.178 11.293,3.712 2.996,1.323 5.768,2.753 8.312,4.287 2.544,1.533 4.618,2.893 6.223,4.078 l 3.869,0 0,-4.094 c -1.587,-1.163 -3.612,-2.49 -6.091,-3.984 -2.545,-1.534 -5.317,-2.964 -8.313,-4.287 -3.417,-1.534 -7.182,-2.772 -11.293,-3.712 -4.115,-0.941 -8.297,-1.412 -12.549,-1.412" /><path
           inkscape:connector-curvature="0"
           id="path3125"
           style="fill:#454749;fill-opacity:1;fill-rule:nonzero;stroke:none"
           d="m 745.9911,385.8632 c -0.011,0.012 -0.022,0.023 -0.033,0.035 0.011,-0.011 0.022,-0.023 0.033,-0.035" /><path
           inkscape:connector-curvature="0"
           id="path3127"
           style="fill:#222426;fill-opacity:1;fill-rule:nonzero;stroke:none"
           d="m 660.455,292.0244 -0.088,0.074 c -11.816,10.596 -17.725,25.688 -17.725,45.28 0,19.17 5.506,34.472 16.522,45.906 11.015,11.433 26.42,17.149 46.221,17.149 17.986,0 31.511,-4.846 40.573,-14.535 0.011,-0.012 0.022,-0.023 0.033,-0.035 0.33,-0.356 0.644,-0.728 0.962,-1.094 -8.949,7.767 -21.465,11.664 -37.568,11.664 -19.801,0 -35.206,-5.717 -46.221,-17.149 -11.016,-11.435 -16.522,-26.736 -16.522,-45.907 0,-17.289 4.61,-31.07 13.813,-41.353" /><path
           inkscape:connector-curvature="0"
           id="path3129"
           style="fill:#356fc0;fill-opacity:1;fill-rule:nonzero;stroke:none"
           d="m 289.695,442.053 -36.695,0 0,-28.548 36.695,0 0,28.548 z" /><path
           inkscape:connector-curvature="0"
           id="path3131"
           style="fill:#265c8a;fill-opacity:1;fill-rule:nonzero;stroke:none"
           d="m 257,413.5047 -4,0 0,28.548 36.695,0 0,-4 -32.695,0 0,-24.548 z" /></g><rect
         transform="scale(1,-1)"
         y="-456.89374"
         x="39.384163"
         height="235.05074"
         width="764.10626"
         id="rect3080"
         style="fill:none;stroke:none" /></g><g
       inkscape:export-ydpi="30.15"
       inkscape:export-xdpi="30.15"
       inkscape:export-filename="/Users/svd/git/frimgle/src/main/svg/frimgle.320x98.png"
       transform="translate(-3.2,14.4)"
       id="g3123"><g
         id="g3125"><path
           d="m 169.737,414.4461 -2.824,0 c -1.394,0.418 -3.573,0.957 -6.535,1.621 -2.964,0.661 -5.769,0.993 -8.418,0.993 -7.39,0 -12.427,-1.359 -15.11,-4.078 -2.684,-2.719 -4.026,-7.808 -4.026,-15.267 l 0,-0.941 29.07,0 0,-25.515 -27.815,0 0,-91.918 -36.6,0 0,91.918 -14.64,0 0,25.515 14.64,0 0,3.241 c 0,14.361 3.765,25.131 11.293,32.313 7.53,7.179 18.928,10.77 34.195,10.77 5.297,0 10.248,-0.193 14.849,-0.575 4.601,-0.384 8.575,-0.889 11.921,-1.516 l 0,-26.561"
           style="fill:#30363d;fill-opacity:1;fill-rule:nonzero;stroke:none"
           id="path3128"
           inkscape:connector-curvature="0" /><path
           d="m 247.2089,362.1607 -3.033,0 c -1.395,0.487 -3.416,0.853 -6.065,1.098 -2.65,0.244 -5.578,0.366 -8.784,0.366 -3.834,0 -7.86,-0.558 -12.077,-1.673 -4.219,-1.116 -8.314,-2.441 -12.287,-3.974 l 0,-78.637 -36.6,0 0,117.433 36.6,0 0,-16.836 c 1.673,1.533 3.99,3.467 6.954,5.804 2.962,2.335 5.663,4.199 8.104,5.594 2.648,1.603 5.733,2.981 9.254,4.131 3.52,1.15 6.85,1.725 9.987,1.725 1.184,0 2.51,-0.036 3.973,-0.104 1.464,-0.071 2.788,-0.175 3.974,-0.314 l 0,-34.613"
           style="fill:#30363d;fill-opacity:1;fill-rule:nonzero;stroke:none"
           id="path3130"
           inkscape:connector-curvature="0" /><path
           d="m 289.65,279.341 -36.6,0 0,117.433 36.6,0 0,-117.433 z"
           style="fill:#30363d;fill-opacity:1;fill-rule:nonzero;stroke:none"
           id="path3132"
           inkscape:connector-curvature="0" /><path
           d="m 435.8856,279.3409 0,58.664 c 0,5.786 -0.104,10.666 -0.314,14.64 -0.208,3.974 -0.835,7.215 -1.882,9.725 -1.045,2.51 -2.666,4.34 -4.862,5.49 -2.196,1.15 -5.281,1.726 -9.255,1.726 -2.789,0 -5.542,-0.612 -8.261,-1.831 -2.718,-1.22 -5.682,-2.945 -8.888,-5.176 l 0,-83.238 -36.809,0 0,58.664 c 0,5.715 -0.123,10.578 -0.366,14.588 -0.245,4.008 -0.889,7.267 -1.935,9.777 -1.045,2.51 -2.666,4.34 -4.862,5.49 -2.196,1.15 -5.247,1.726 -9.15,1.726 -2.998,0 -5.926,-0.698 -8.784,-2.092 -2.859,-1.395 -5.647,-3.032 -8.366,-4.915 l 0,-83.238 -36.599,0 0,117.433 36.599,0 0,-12.967 c 5.995,5.088 11.642,9.062 16.941,11.921 5.297,2.858 11.258,4.288 17.881,4.288 7.18,0 13.49,-1.71 18.928,-5.124 5.437,-3.417 9.584,-8.507 12.444,-15.268 7.04,6.552 13.681,11.589 19.92,15.111 6.238,3.519 12.566,5.281 18.981,5.281 5.436,0 10.315,-0.873 14.639,-2.615 4.321,-1.743 7.981,-4.358 10.98,-7.842 3.275,-3.765 5.733,-8.245 7.372,-13.438 1.636,-5.194 2.458,-11.973 2.458,-20.339 l 0,-76.441 -36.81,0"
           style="fill:#30363d;fill-opacity:1;fill-rule:nonzero;stroke:none"
           id="path3134"
           inkscape:connector-curvature="0" /><path
           d="m 557.3351,316.3586 0,53.227 c -1.815,0.836 -4.044,1.533 -6.692,2.091 -2.651,0.557 -5.299,0.837 -7.948,0.837 -8.784,0 -15.39,-2.842 -19.816,-8.523 -4.428,-5.683 -6.64,-13.612 -6.64,-23.789 0,-5.09 0.329,-9.395 0.993,-12.915 0.661,-3.521 1.899,-6.64 3.712,-9.359 1.741,-2.65 4.026,-4.653 6.85,-6.013 2.823,-1.36 6.43,-2.04 10.823,-2.04 3.277,0 6.499,0.558 9.673,1.674 3.171,1.114 6.185,2.719 9.045,4.81 m 36.599,-23.529 c 0,-10.874 -1.568,-20.111 -4.705,-27.711 -3.137,-7.597 -7.425,-13.524 -12.862,-17.776 -5.438,-4.322 -11.957,-7.44 -19.555,-9.359 -7.599,-1.917 -16.035,-2.876 -25.306,-2.876 -7.809,0 -15.215,0.507 -22.221,1.515 -7.007,1.013 -13.09,2.18 -18.248,3.505 l 0,29.383 4.288,0 c 1.812,-0.695 3.955,-1.464 6.431,-2.299 2.473,-0.837 4.967,-1.604 7.476,-2.301 2.996,-0.767 5.924,-1.395 8.785,-1.882 2.857,-0.488 5.785,-0.733 8.783,-0.733 6.204,0 11.381,0.646 15.529,1.935 4.147,1.291 7.267,3.121 9.359,5.49 2.091,2.441 3.555,5.316 4.392,8.627 0.837,3.311 1.255,7.477 1.255,12.496 l 0,2.196 c -4.114,-3.626 -8.872,-6.536 -14.274,-8.731 -5.404,-2.196 -10.964,-3.294 -16.679,-3.294 -15.198,0 -26.927,4.949 -35.188,14.849 -8.261,9.898 -12.391,24.957 -12.391,45.174 0,9.202 1.27,17.463 3.816,24.783 2.544,7.32 6.081,13.558 10.614,18.719 4.322,4.949 9.55,8.766 15.686,11.45 6.133,2.683 12.511,4.026 19.136,4.026 5.995,0 11.362,-0.768 16.104,-2.301 4.74,-1.534 9.062,-3.591 12.967,-6.169 l 1.359,5.229 35.449,0 0,-103.945"
           style="fill:#30363d;fill-opacity:1;fill-rule:nonzero;stroke:none"
           id="path3136"
           inkscape:connector-curvature="0" /><path
           d="m 636.437,279.341 -36.599,0 0,162.712 36.599,0 0,-162.712 z"
           style="fill:#30363d;fill-opacity:1;fill-rule:nonzero;stroke:none"
           id="path3138"
           inkscape:connector-curvature="0" /><path
           d="m 723.4755,353.1675 c -0.21,7.739 -2.005,13.629 -5.385,17.673 -3.382,4.042 -8.558,6.065 -15.529,6.065 -7.11,0 -12.671,-2.128 -16.679,-6.379 -4.009,-4.253 -6.222,-10.039 -6.64,-17.359 l 44.233,0 m -12.131,-76.963 c -22.169,0 -39.161,5.297 -50.977,15.894 -11.816,10.596 -17.725,25.688 -17.725,45.28 0,19.17 5.506,34.471 16.522,45.906 11.014,11.432 26.42,17.149 46.22,17.149 17.987,0 31.511,-4.846 40.574,-14.535 9.061,-9.691 13.593,-23.564 13.593,-41.619 l 0,-13.176 -80.205,0 c 0.348,-5.437 1.498,-9.986 3.452,-13.646 1.95,-3.66 4.53,-6.572 7.737,-8.732 3.137,-2.162 6.797,-3.713 10.98,-4.653 4.183,-0.942 8.748,-1.412 13.7,-1.412 4.251,0 8.433,0.47 12.548,1.412 4.111,0.94 7.876,2.178 11.293,3.712 2.996,1.323 5.768,2.752 8.313,4.287 2.544,1.533 4.617,2.892 6.222,4.078 l 3.869,0 0,-30.221 c -2.998,-1.186 -5.735,-2.284 -8.208,-3.294 -2.475,-1.01 -5.875,-2.039 -10.196,-3.085 -3.974,-1.046 -8.07,-1.863 -12.287,-2.457 -4.219,-0.591 -9.359,-0.888 -15.425,-0.888"
           style="fill:#30363d;fill-opacity:1;fill-rule:nonzero;stroke:none"
           id="path3140"
           inkscape:connector-curvature="0" /><path
           d="m 86.8387,371.2587 -4,0 0,25.515 14.64,0 0,3.242 c 0,14.36 3.765,25.131 11.294,32.312 7.529,7.18 18.927,10.771 34.195,10.771 5.297,0 10.247,-0.193 14.848,-0.575 4.601,-0.385 8.575,-0.889 11.921,-1.517 l 0,-3.35 c -2.393,0.337 -5.033,0.626 -7.921,0.867 -4.6,0.382 -9.551,0.575 -14.849,0.575 -15.267,0 -26.665,-3.591 -34.194,-10.771 -7.529,-7.181 -11.294,-17.952 -11.294,-32.312 l 0,-3.242 -14.64,0 0,-21.515"
           style="fill:#222426;fill-opacity:1;fill-rule:nonzero;stroke:none"
           id="path3142"
           inkscape:connector-curvature="0" /><path
           d="m 101.479,279.341 -4,0 0,87.918 4,0 0,-87.918 z"
           style="fill:#222426;fill-opacity:1;fill-rule:nonzero;stroke:none"
           id="path3144"
           inkscape:connector-curvature="0" /><path
           d="m 161.894,392.774 -25.07,0 0,0.941 c 0,1.074 0.036,2.084 0.091,3.059 l 24.979,0 0,-4"
           style="fill:#222426;fill-opacity:1;fill-rule:nonzero;stroke:none"
           id="path3146"
           inkscape:connector-curvature="0" /><path
           d="m 172.3628,279.3409 -4,0 0,117.433 36.6,0 0,-4 -32.6,0 0,-113.433 z"
           style="fill:#222426;fill-opacity:1;fill-rule:nonzero;stroke:none"
           id="path3148"
           inkscape:connector-curvature="0" /><path
           d="m 208.9626,375.9379 0,7.432 c 0.901,0.739 1.884,1.528 2.954,2.372 2.962,2.335 5.663,4.199 8.104,5.594 2.648,1.603 5.733,2.981 9.254,4.131 3.52,1.15 6.85,1.725 9.987,1.725 1.185,0 2.51,-0.036 3.974,-0.105 1.464,-0.07 2.787,-0.174 3.973,-0.313 l 0,-3.685 c -1.453,0.067 -2.77,0.103 -3.947,0.103 -3.137,0 -6.467,-0.575 -9.987,-1.725 -3.521,-1.15 -6.606,-2.528 -9.254,-4.131 -2.441,-1.395 -5.142,-3.259 -8.104,-5.594 -2.964,-2.337 -5.281,-4.272 -6.954,-5.804"
           style="fill:#222426;fill-opacity:1;fill-rule:nonzero;stroke:none"
           id="path3150"
           inkscape:connector-curvature="0" /><path
           d="m 257.0498,279.3409 -4,0 0,117.433 36.6,0 0,-4 -32.6,0 0,-113.433 z"
           style="fill:#222426;fill-opacity:1;fill-rule:nonzero;stroke:none"
           id="path3152"
           inkscape:connector-curvature="0" /><path
           d="m 417.8509,394.4983 c 0.004,0.002 0.007,0.004 0.011,0.006 -0.004,-0.002 -0.007,-0.004 -0.011,-0.006 m 0.066,0.038 c 0.008,0.004 0.015,0.008 0.022,0.013 -0.007,-0.005 -0.014,-0.009 -0.022,-0.013 m 0.067,0.038 c 0.013,0.008 0.027,0.016 0.04,0.023 -0.013,-0.008 -0.026,-0.015 -0.04,-0.023 m 0.068,0.039 c 0.018,0.01 0.037,0.021 0.055,0.031 -0.019,-0.011 -0.037,-0.021 -0.055,-0.031 m 0.07,0.04 c 0.019,0.01 0.038,0.021 0.057,0.032 -0.019,-0.011 -0.038,-0.022 -0.057,-0.032 m 0.073,0.041 c 0.024,0.013 0.047,0.027 0.071,0.04 -0.023,-0.013 -0.048,-0.027 -0.071,-0.04"
           style="fill:#454749;fill-opacity:1;fill-rule:nonzero;stroke:none"
           id="path3154"
           inkscape:connector-curvature="0" /><path
           d="m 402.3453,375.6239 c -0.79,1.868 -1.688,3.595 -2.674,5.207 6.393,5.818 12.456,10.385 18.18,13.667 0.003,0.003 0.007,0.004 0.011,0.007 0.018,0.01 0.036,0.021 0.055,0.031 0.007,0.005 0.015,0.009 0.022,0.013 0.015,0.009 0.03,0.017 0.045,0.026 0.013,0.007 0.027,0.015 0.04,0.022 0.009,0.006 0.018,0.011 0.027,0.016 0.019,0.011 0.037,0.021 0.056,0.032 0.005,0.003 0.009,0.005 0.015,0.008 0.019,0.011 0.038,0.022 0.057,0.032 0.005,0.003 0.01,0.006 0.015,0.009 0.024,0.014 0.048,0.027 0.072,0.041 6.238,3.519 12.565,5.281 18.98,5.281 5.436,0 10.315,-0.873 14.639,-2.615 4.322,-1.743 7.981,-4.358 10.98,-7.842 0.143,-0.165 0.277,-0.34 0.418,-0.508 -2.202,1.797 -4.667,3.249 -7.398,4.351 -4.324,1.741 -9.203,2.614 -14.639,2.614 -6.415,0 -12.742,-1.762 -18.981,-5.282 -6.239,-3.52 -12.88,-8.558 -19.92,-15.11"
           style="fill:#222426;fill-opacity:1;fill-rule:nonzero;stroke:none"
           id="path3156"
           inkscape:connector-curvature="0" /><path
           d="m 348.4139,395.3567 c 0.002,0.001 0.004,0.002 0.006,0.004 -0.002,-0.002 -0.004,-0.003 -0.006,-0.004 m 0.091,0.05 c 0.012,0.007 0.024,0.014 0.036,0.02 -0.012,-0.006 -0.024,-0.013 -0.036,-0.02 m 0.103,0.057 c 0.035,0.019 0.069,0.038 0.103,0.057 -0.034,-0.019 -0.068,-0.038 -0.103,-0.057 m 0.139,0.076 c 0.027,0.015 0.054,0.03 0.08,0.044 -0.027,-0.014 -0.053,-0.029 -0.08,-0.044 m 0.117,0.065 c 0.028,0.015 0.056,0.03 0.084,0.045 -0.028,-0.015 -0.056,-0.03 -0.084,-0.045 m 0.114,0.061 c 0.039,0.021 0.077,0.042 0.115,0.062 -0.039,-0.02 -0.076,-0.041 -0.115,-0.062"
           style="fill:#454749;fill-opacity:1;fill-rule:nonzero;stroke:none"
           id="path3158"
           inkscape:connector-curvature="0" /><path
           d="m 336.152,379.8067 0,7.264 c 4.273,3.356 8.361,6.123 12.262,8.286 0.002,0.001 0.004,0.002 0.006,0.003 0.028,0.016 0.056,0.032 0.084,0.047 0.013,0.007 0.025,0.014 0.037,0.02 0.023,0.013 0.045,0.025 0.067,0.037 0.035,0.019 0.069,0.038 0.103,0.057 0.012,0.006 0.024,0.013 0.036,0.019 0.027,0.015 0.053,0.03 0.08,0.044 0.013,0.007 0.025,0.014 0.037,0.02 0.028,0.016 0.056,0.031 0.084,0.046 0.01,0.005 0.02,0.011 0.03,0.016 0.039,0.021 0.076,0.042 0.114,0.062 5.298,2.858 11.258,4.288 17.882,4.288 7.179,0 13.489,-1.71 18.927,-5.124 2.677,-1.682 5.037,-3.773 7.088,-6.265 -0.983,0.815 -2.002,1.583 -3.087,2.265 -5.439,3.415 -11.749,5.124 -18.928,5.124 -6.624,0 -12.584,-1.43 -17.882,-4.288 -5.298,-2.859 -10.945,-6.833 -16.94,-11.921"
           style="fill:#222426;fill-opacity:1;fill-rule:nonzero;stroke:none"
           id="path3160"
           inkscape:connector-curvature="0" /><path
           d="m 433.6666,362.4251 c -0.004,0.009 -0.008,0.018 -0.012,0.028 0.004,-0.01 0.008,-0.019 0.012,-0.028 m -0.016,0.038 c -0.195,0.456 -0.414,0.883 -0.648,1.294 0.006,-0.003 0.011,-0.006 0.017,-0.009 0.229,-0.406 0.439,-0.834 0.631,-1.285"
           style="fill:#454749;fill-opacity:1;fill-rule:nonzero;stroke:none"
           id="path3162"
           inkscape:connector-curvature="0" /><path
           d="m 439.8857,279.3409 -4,0 0,58.664 c 0,5.786 -0.104,10.666 -0.314,14.64 -0.208,3.974 -0.835,7.215 -1.882,9.725 -0.008,0.019 -0.015,0.037 -0.023,0.055 -0.004,0.009 -0.008,0.019 -0.012,0.028 -10e-4,0.003 -0.003,0.007 -0.004,0.011 -0.192,0.45 -0.402,0.878 -0.631,1.284 2.097,-1.155 3.657,-2.944 4.67,-5.378 1.047,-2.51 1.674,-5.751 1.882,-9.725 0.21,-3.974 0.314,-8.854 0.314,-14.64 l 0,-54.664"
           style="fill:#222426;fill-opacity:1;fill-rule:nonzero;stroke:none"
           id="path3164"
           inkscape:connector-curvature="0" /><path
           d="m 363.2938,362.4182 c -0.2,0.473 -0.426,0.914 -0.666,1.34 0.005,-0.003 0.01,-0.006 0.015,-0.009 0.237,-0.42 0.454,-0.864 0.651,-1.331"
           style="fill:#454749;fill-opacity:1;fill-rule:nonzero;stroke:none"
           id="path3166"
           inkscape:connector-curvature="0" /><path
           d="m 369.6148,279.3409 -4,0 0,58.664 c 0,5.715 -0.123,10.578 -0.366,14.588 -0.245,4.008 -0.889,7.267 -1.935,9.777 -0.007,0.016 -0.013,0.032 -0.02,0.048 -0.197,0.468 -0.414,0.911 -0.651,1.331 2.097,-1.155 3.657,-2.945 4.671,-5.379 1.046,-2.51 1.69,-5.769 1.935,-9.777 0.243,-4.01 0.366,-8.873 0.366,-14.588 l 0,-54.664"
           style="fill:#222426;fill-opacity:1;fill-rule:nonzero;stroke:none"
           id="path3168"
           inkscape:connector-curvature="0" /><path
           d="m 299.5522,279.3409 -4,0 0,117.433 36.6,0 0,-4 -32.6,0 0,-113.433 z"
           style="fill:#222426;fill-opacity:1;fill-rule:nonzero;stroke:none"
           id="path3170"
           inkscape:connector-curvature="0" /><path
           d="m 493.6253,239.4939 c -0.887,0.207 -1.75,0.418 -2.588,0.633 0.838,-0.215 1.701,-0.426 2.588,-0.633 m 62.474,38.93 c 0,10e-4 0,10e-4 10e-4,0.002 -10e-4,-0.001 -10e-4,-0.001 -10e-4,-0.002 m 0.095,0.394 c 10e-4,10e-4 10e-4,0.002 10e-4,0.003 0,-10e-4 0,-0.002 -10e-4,-0.003 m 0.019,0.077 c 0,0.002 0,0.003 10e-4,0.005 -10e-4,-0.002 -10e-4,-0.003 -10e-4,-0.005 m 0.016,0.069 c 0.002,0.012 0.005,0.024 0.008,0.035 -0.003,-0.011 -0.006,-0.023 -0.008,-0.035 m 0.012,0.055 c 0.449,1.971 0.758,4.227 0.931,6.762 0.001,0.001 0.001,0.001 0.002,0.002 -0.172,-2.538 -0.483,-4.792 -0.933,-6.764"
           style="fill:#454749;fill-opacity:1;fill-rule:nonzero;stroke:none"
           id="path3172"
           inkscape:connector-curvature="0" /><path
           d="m 495.0372,239.1729 c -0.477,0.106 -0.948,0.213 -1.412,0.321 -0.887,0.207 -1.75,0.418 -2.588,0.633 l 0,29.384 4.288,0 c 1.812,-0.696 3.955,-1.464 6.431,-2.3 2.473,-0.836 4.966,-1.603 7.476,-2.301 2.996,-0.766 5.924,-1.394 8.784,-1.882 2.858,-0.487 5.785,-0.732 8.784,-0.732 6.204,0 11.381,0.645 15.529,1.934 4.147,1.292 7.267,3.122 9.359,5.491 2.091,2.44 3.555,5.316 4.392,8.627 0.006,0.025 0.013,0.05 0.019,0.076 0,10e-4 10e-4,10e-4 10e-4,0.002 0.032,0.129 0.064,0.26 0.095,0.392 0,10e-4 0,0.002 0,0.003 0.006,0.025 0.012,0.049 0.018,0.074 0,0.002 0,0.003 10e-4,0.005 0.005,0.021 0.01,0.042 0.015,0.064 0.002,0.012 0.005,0.024 0.008,0.035 10e-4,0.007 0.003,0.014 0.004,0.02 0.45,1.972 0.761,4.226 0.933,6.764 1.45,1.014 2.842,2.095 4.161,3.256 l 0,-2.195 c 0,-5.019 -0.418,-9.186 -1.255,-12.496 -0.837,-3.311 -2.301,-6.187 -4.392,-8.627 -2.092,-2.369 -5.212,-4.199 -9.359,-5.491 -4.148,-1.289 -9.325,-1.934 -15.529,-1.934 -2.998,0 -5.926,0.245 -8.783,0.732 -2.861,0.488 -5.789,1.115 -8.785,1.882 -2.509,0.698 -5.003,1.465 -7.477,2.301 -2.475,0.836 -4.619,1.604 -6.43,2.3 l -4.288,0 0,-26.338"
           style="fill:#222426;fill-opacity:1;fill-rule:nonzero;stroke:none"
           id="path3174"
           inkscape:connector-curvature="0" /><path
           d="m 491.265,295.7786 c -0.002,0.003 -0.005,0.006 -0.007,0.009 0.002,-0.003 0.004,-0.006 0.007,-0.009"
           style="fill:#454749;fill-opacity:1;fill-rule:nonzero;stroke:none"
           id="path3176"
           inkscape:connector-curvature="0" /><path
           d="m 495.7899,291.1895 c -1.606,1.39 -3.119,2.914 -4.525,4.589 -0.002,0.003 -0.005,0.006 -0.007,0.009 -0.021,0.025 -0.042,0.05 -0.064,0.076 -8.261,9.898 -12.391,24.957 -12.391,45.174 0,9.202 1.27,17.463 3.816,24.783 2.544,7.32 6.081,13.559 10.615,18.719 4.321,4.949 9.549,8.766 15.685,11.45 6.134,2.683 12.512,4.026 19.136,4.026 5.995,0 11.362,-0.768 16.104,-2.301 4.741,-1.534 9.062,-3.591 12.967,-6.169 l 1.359,5.229 35.45,0 0,-4 -31.449,0 -1.36,-5.229 c -3.905,2.578 -8.227,4.635 -12.967,6.169 -4.742,1.533 -10.109,2.301 -16.104,2.301 -6.624,0 -13.002,-1.343 -19.136,-4.026 -6.136,-2.684 -11.364,-6.501 -15.686,-11.45 -4.533,-5.161 -8.07,-11.399 -10.614,-18.719 -2.546,-7.32 -3.816,-15.581 -3.816,-24.783 0,-20.217 4.131,-35.276 12.391,-45.174 0.194,-0.232 0.399,-0.447 0.596,-0.674"
           style="fill:#222426;fill-opacity:1;fill-rule:nonzero;stroke:none"
           id="path3178"
           inkscape:connector-curvature="0" /><path
           d="m 527.7941,311.915 c -0.023,0.011 -0.046,0.022 -0.069,0.034 0.023,-0.012 0.046,-0.023 0.069,-0.034 m -0.108,0.052 c -0.014,0.007 -0.029,0.015 -0.043,0.022 0.014,-0.007 0.029,-0.015 0.043,-0.022 m -0.062,0.031 c -0.799,0.395 -1.554,0.842 -2.266,1.342 -0.005,0.009 -0.011,0.017 -0.017,0.025 0.718,-0.507 1.476,-0.967 2.283,-1.367"
           style="fill:#454749;fill-opacity:1;fill-rule:nonzero;stroke:none"
           id="path3180"
           inkscape:connector-curvature="0" /><path
           d="m 542.617,305.8748 c -4.392,0 -8,0.68 -10.823,2.04 -2.608,1.255 -4.751,3.069 -6.436,5.426 0.712,-0.5 1.467,-0.948 2.266,-1.343 0.006,-0.003 0.012,-0.006 0.019,-0.009 0.014,-0.007 0.029,-0.014 0.044,-0.022 0.012,-0.006 0.025,-0.012 0.038,-0.018 0.023,-0.011 0.046,-0.023 0.069,-0.034 2.823,-1.36 6.43,-2.04 10.823,-2.04 3.277,0 6.499,0.558 9.673,1.674 3.171,1.114 6.185,2.719 9.045,4.81 l 0,50.651 c 1.496,-0.42 2.843,-0.891 4,-1.425 l 0,-53.226 c -2.859,-2.091 -5.874,-3.696 -9.045,-4.81 -3.174,-1.116 -6.397,-1.674 -9.673,-1.674"
           style="fill:#222426;fill-opacity:1;fill-rule:nonzero;stroke:none"
           id="path3182"
           inkscape:connector-curvature="0" /><path
           d="m 603.8381,279.3409 -4,0 0,162.712 36.598,0 0,-4 -32.598,0 0,-158.712 z"
           style="fill:#222426;fill-opacity:1;fill-rule:nonzero;stroke:none"
           id="path3184"
           inkscape:connector-curvature="0" /><path
           d="m 723.4731,353.2518 c 0,0.017 -0.001,0.034 -0.001,0.051 0,-0.017 0.001,-0.034 0.001,-0.051 m -0.003,0.084 c 0,0.021 -10e-4,0.043 -10e-4,0.063 0,-0.021 10e-4,-0.042 10e-4,-0.063 m -0.002,0.082 c -0.001,0.024 -0.002,0.049 -0.002,0.074 0,-0.025 10e-4,-0.05 0.002,-0.074 m -0.003,0.079 c -0.228,6.854 -1.729,12.222 -4.478,16.138 0.016,-0.011 0.032,-0.022 0.049,-0.033 2.727,-3.912 4.203,-9.279 4.429,-16.105"
           style="fill:#454749;fill-opacity:1;fill-rule:nonzero;stroke:none"
           id="path3186"
           inkscape:connector-curvature="0" /><path
           d="m 727.4755,349.1674 -44.233,0 c 0.08,1.395 0.245,2.716 0.455,4 l 39.778,0 c -10e-4,0.028 -0.002,0.056 -0.002,0.084 -10e-4,0.017 -10e-4,0.035 -0.002,0.051 0,0.012 -10e-4,0.022 -10e-4,0.034 -10e-4,0.021 -10e-4,0.042 -0.002,0.063 0,0.006 0,0.012 0,0.018 -10e-4,0.024 -0.002,0.05 -0.003,0.074 0,0.002 0,0.003 0,0.005 -0.227,6.826 -1.703,12.194 -4.43,16.106 1.139,-0.785 2.164,-1.698 3.054,-2.762 3.381,-4.044 5.176,-9.934 5.386,-17.673"
           style="fill:#222426;fill-opacity:1;fill-rule:nonzero;stroke:none"
           id="path3188"
           inkscape:connector-curvature="0" /><path
           d="m 690.5353,308.7256 c -0.435,0.293 -0.858,0.599 -1.27,0.92 -0.003,0.005 -0.007,0.009 -0.011,0.014 0.417,-0.325 0.841,-0.638 1.281,-0.934"
           style="fill:#454749;fill-opacity:1;fill-rule:nonzero;stroke:none"
           id="path3190"
           inkscape:connector-curvature="0" /><path
           d="m 719.2147,298.6602 c -4.951,0 -9.516,0.471 -13.699,1.412 -4.183,0.94 -7.843,2.491 -10.981,4.653 -2,1.348 -3.757,2.988 -5.269,4.92 0.412,-0.32 0.835,-0.627 1.27,-0.92 3.137,-2.162 6.797,-3.713 10.98,-4.653 4.183,-0.941 8.748,-1.412 13.699,-1.412 4.252,0 8.434,0.471 12.549,1.412 4.111,0.94 7.876,2.178 11.293,3.712 2.996,1.323 5.768,2.753 8.312,4.287 2.544,1.533 4.618,2.893 6.223,4.078 l 3.869,0 0,-4.094 c -1.587,-1.163 -3.612,-2.49 -6.091,-3.984 -2.545,-1.534 -5.317,-2.964 -8.313,-4.287 -3.417,-1.534 -7.182,-2.772 -11.293,-3.712 -4.115,-0.941 -8.297,-1.412 -12.549,-1.412"
           style="fill:#222426;fill-opacity:1;fill-rule:nonzero;stroke:none"
           id="path3192"
           inkscape:connector-curvature="0" /><path
           d="m 745.9911,385.8632 c -0.011,0.012 -0.022,0.023 -0.033,0.035 0.011,-0.011 0.022,-0.023 0.033,-0.035"
           style="fill:#454749;fill-opacity:1;fill-rule:nonzero;stroke:none"
           id="path3194"
           inkscape:connector-curvature="0" /><path
           d="m 660.455,292.0244 -0.088,0.074 c -11.816,10.596 -17.725,25.688 -17.725,45.28 0,19.17 5.506,34.472 16.522,45.906 11.015,11.433 26.42,17.149 46.221,17.149 17.986,0 31.511,-4.846 40.573,-14.535 0.011,-0.012 0.022,-0.023 0.033,-0.035 0.33,-0.356 0.644,-0.728 0.962,-1.094 -8.949,7.767 -21.465,11.664 -37.568,11.664 -19.801,0 -35.206,-5.717 -46.221,-17.149 -11.016,-11.435 -16.522,-26.736 -16.522,-45.907 0,-17.289 4.61,-31.07 13.813,-41.353"
           style="fill:#222426;fill-opacity:1;fill-rule:nonzero;stroke:none"
           id="path3196"
           inkscape:connector-curvature="0" /><path
           d="m 289.695,442.053 -36.695,0 0,-28.548 36.695,0 0,28.548 z"
           style="fill:#356fc0;fill-opacity:1;fill-rule:nonzero;stroke:none"
           id="path3198"
           inkscape:connector-curvature="0" /><path
           d="m 257,413.5047 -4,0 0,28.548 36.695,0 0,-4 -32.695,0 0,-24.548 z"
           style="fill:#265c8a;fill-opacity:1;fill-rule:nonzero;stroke:none"
           id="path3200"
           inkscape:connector-curvature="0" /></g><rect
         style="fill:none;stroke:none"
         id="rect3202"
         width="764.10626"
         height="235.05074"
         x="39.384163"
         y="-456.89374"
         transform="scale(1,-1)" /></g></g></svg>